@startuml
hide empty members

' qualified name: "ReductionDSL"


class ArgumentBinding

class ArgumentDeclaration implements INamed

class ArgumentReference implements Value

class BinaryOperation implements Value {
  operator: BinaryOperators
}

enum BinaryOperators {
  plus
  plusWithPositiveOperands
}

class FunctionDeclaration implements INamed, Statement

class FunctionInvocation implements Value

interface Literal extends Value
class NumberLiteral implements Literal {
  value: Integer
}

class Program <<partition>> implements Reducible

interface Reducible
interface Statement
class StringLiteral implements Literal {
  value: String
}

annotation TraceAnnotation
TraceAnnotation ..# Reducible : <i>annotates</i>

interface Value extends Reducible, Statement
class WrappedOriginalNode implements Reducible



' relations:

ArgumentBinding "*" --> "1" ArgumentDeclaration: argument
ArgumentBinding "1" o--> "1" Value: value

ArgumentReference "*" --> "1" ArgumentDeclaration: argument
BinaryOperation "1" o--> "1" Value: left
BinaryOperation "1" o--> "1" Value: right

FunctionDeclaration "1" o--> "*" ArgumentDeclaration: arguments
FunctionDeclaration "1" o--> "1" Value: value
FunctionInvocation "*" --> "1" FunctionDeclaration: function
FunctionInvocation "1" o--> "*" ArgumentBinding: bindings


Program "1" o--> "*" Statement: statements



TraceAnnotation "*" --> "1" Reducible: reducedNode
TraceAnnotation "*" --> "*" ArgumentBinding: relevantBindings

WrappedOriginalNode "*" --> "1" Reducible: originalNode

@enduml
